<?xml version="1.0" encoding="utf-8"?>
<!-- Generator: Adobe Illustrator 22.0.1, SVG Export Plug-In . SVG Version: 6.00 Build 0)  -->
<svg version="1.1" id="레이어_1" xmlns="http://www.w3.org/2000/svg" xmlns:xlink="http://www.w3.org/1999/xlink" x="0px"
	 y="0px" viewBox="0 0 80.8 12.956" style="enable-background:new 0 0 80.8 12.956;" xml:space="preserve">
<style type="text/css">
	.st0{fill:#FFFFFF;}
	.st1{fill:#047769;}
</style>
<g>
	<g>
		<path class="st0" d="M10.512,7.802c0,1.216-0.34,2.12-1.02,2.712c-0.68,0.592-1.624,0.888-2.832,0.888H3.468V1.706H6.66
			c1.224,0,2.172,0.32,2.844,0.96c0.672,0.64,1.008,1.58,1.008,2.82V7.802z M5.411,9.746h1.124c0.375,0,0.691-0.04,0.95-0.12
			c0.259-0.08,0.468-0.21,0.627-0.39c0.16-0.18,0.275-0.41,0.347-0.69c0.072-0.28,0.108-0.62,0.108-1.02V5.834
			c0-0.8-0.152-1.416-0.455-1.848C7.81,3.554,7.285,3.338,6.535,3.338H5.411V9.746z"/>
		<path class="st0" d="M11.04,9.266c0-0.416,0.056-0.782,0.168-1.098c0.112-0.316,0.29-0.582,0.534-0.798
			c0.244-0.216,0.564-0.378,0.96-0.486c0.396-0.108,0.882-0.162,1.458-0.162h1.836V6.218c0-0.272-0.116-0.514-0.348-0.726
			s-0.564-0.318-0.996-0.318c-0.192,0-0.368,0.008-0.528,0.024s-0.302,0.052-0.426,0.108c-0.125,0.056-0.232,0.136-0.324,0.24
			c-0.092,0.104-0.162,0.244-0.21,0.42h-1.788c0.104-0.736,0.428-1.318,0.972-1.746c0.544-0.428,1.316-0.63,2.316-0.606
			c1.024,0.016,1.806,0.26,2.346,0.732c0.54,0.472,0.81,1.192,0.81,2.16v4.896h-1.644l-0.072-0.744
			c-0.32,0.376-0.684,0.624-1.092,0.744c-0.408,0.12-0.88,0.18-1.416,0.18c-0.368,0-0.708-0.044-1.02-0.132
			c-0.312-0.088-0.582-0.226-0.81-0.414s-0.406-0.428-0.534-0.72S11.04,9.674,11.04,9.266z M14.004,9.974
			c0.16-0.008,0.354-0.038,0.582-0.09c0.228-0.052,0.446-0.138,0.654-0.258c0.208-0.12,0.386-0.278,0.534-0.474
			c0.148-0.196,0.222-0.442,0.222-0.738V8.222h-1.74c-0.52,0-0.884,0.072-1.092,0.216s-0.312,0.4-0.312,0.768
			c0,0.168,0.038,0.304,0.114,0.408c0.076,0.104,0.172,0.184,0.288,0.24c0.116,0.056,0.24,0.092,0.372,0.108
			S13.884,9.982,14.004,9.974z"/>
		<path class="st0" d="M21.564,1.37v2.628h1.428V5.57h-1.428v3.264c0,0.16,0.008,0.306,0.024,0.438
			c0.016,0.132,0.054,0.25,0.114,0.354s0.154,0.184,0.282,0.24c0.128,0.056,0.308,0.084,0.54,0.084h0.6v1.584h-0.9
			c-0.488,0-0.892-0.06-1.212-0.18s-0.576-0.284-0.768-0.492c-0.192-0.208-0.328-0.458-0.408-0.75
			c-0.08-0.292-0.12-0.614-0.12-0.966V5.57h-1.308V3.998h1.308V1.37H21.564z"/>
		<path class="st0" d="M23.556,9.266c0-0.416,0.056-0.782,0.168-1.098c0.112-0.316,0.29-0.582,0.534-0.798
			c0.244-0.216,0.564-0.378,0.96-0.486c0.396-0.108,0.882-0.162,1.458-0.162h1.836V6.218c0-0.272-0.116-0.514-0.348-0.726
			S27.6,5.174,27.168,5.174c-0.192,0-0.368,0.008-0.528,0.024s-0.302,0.052-0.426,0.108c-0.125,0.056-0.232,0.136-0.324,0.24
			c-0.092,0.104-0.162,0.244-0.21,0.42h-1.788c0.104-0.736,0.428-1.318,0.972-1.746c0.544-0.428,1.316-0.63,2.316-0.606
			c1.024,0.016,1.806,0.26,2.346,0.732c0.54,0.472,0.81,1.192,0.81,2.16v4.896h-1.644l-0.072-0.744
			c-0.32,0.376-0.684,0.624-1.092,0.744c-0.408,0.12-0.88,0.18-1.416,0.18c-0.368,0-0.708-0.044-1.02-0.132
			c-0.312-0.088-0.582-0.226-0.81-0.414s-0.406-0.428-0.534-0.72S23.556,9.674,23.556,9.266z M26.52,9.974
			c0.16-0.008,0.354-0.038,0.582-0.09c0.228-0.052,0.446-0.138,0.654-0.258c0.208-0.12,0.386-0.278,0.534-0.474
			c0.148-0.196,0.222-0.442,0.222-0.738V8.222h-1.74c-0.52,0-0.884,0.072-1.092,0.216s-0.312,0.4-0.312,0.768
			c0,0.168,0.038,0.304,0.114,0.408c0.076,0.104,0.172,0.184,0.288,0.24c0.116,0.056,0.24,0.092,0.372,0.108S26.4,9.982,26.52,9.974
			z"/>
		<path class="st0" d="M36.456,4.298c-0.024-0.451-0.178-0.772-0.461-0.962c-0.282-0.19-0.671-0.286-1.165-0.286
			c-0.47,0-0.833,0.098-1.088,0.294s-0.374,0.513-0.358,0.953c0.008,0.224,0.098,0.411,0.271,0.563
			c0.172,0.152,0.378,0.28,0.617,0.384c0.24,0.104,0.49,0.188,0.75,0.251s0.475,0.12,0.643,0.167
			c0.432,0.136,0.826,0.286,1.182,0.45c0.356,0.164,0.662,0.359,0.918,0.587c0.256,0.228,0.456,0.496,0.601,0.803
			C38.508,7.81,38.58,8.179,38.58,8.61c0,0.551-0.099,1.021-0.295,1.408s-0.467,0.699-0.812,0.935
			c-0.345,0.235-0.745,0.403-1.201,0.503c-0.457,0.1-0.942,0.142-1.455,0.126c-0.536-0.016-1.023-0.092-1.46-0.228
			c-0.437-0.136-0.813-0.34-1.13-0.612c-0.316-0.272-0.565-0.614-0.745-1.026c-0.181-0.412-0.283-0.902-0.307-1.47h1.896
			c0.016,0.552,0.186,0.974,0.51,1.266s0.75,0.442,1.277,0.45c0.601,0.008,1.053-0.086,1.356-0.282
			c0.304-0.196,0.444-0.558,0.42-1.086c-0.008-0.248-0.072-0.452-0.192-0.612c-0.119-0.16-0.279-0.296-0.479-0.408
			c-0.2-0.112-0.432-0.208-0.696-0.288c-0.264-0.08-0.54-0.164-0.828-0.252c-0.336-0.088-0.682-0.196-1.038-0.324
			c-0.355-0.128-0.678-0.294-0.966-0.498S31.91,5.754,31.722,5.45c-0.188-0.304-0.282-0.676-0.282-1.116
			c0-0.48,0.086-0.904,0.258-1.272c0.172-0.368,0.408-0.674,0.709-0.918c0.3-0.244,0.657-0.43,1.073-0.558s0.868-0.192,1.356-0.192
			c0.552,0,1.044,0.068,1.476,0.204c0.433,0.136,0.798,0.33,1.099,0.582c0.3,0.252,0.531,0.558,0.695,0.918
			c0.164,0.36,0.254,0.76,0.271,1.2H36.456z"/>
		<path class="st0" d="M41.904,1.37v2.628h1.429V5.57h-1.429v3.264c0,0.16,0.008,0.306,0.024,0.438
			c0.016,0.132,0.054,0.25,0.114,0.354c0.06,0.104,0.153,0.184,0.281,0.24c0.128,0.056,0.309,0.084,0.54,0.084h0.601v1.584h-0.9
			c-0.488,0-0.892-0.06-1.212-0.18s-0.576-0.284-0.768-0.492c-0.192-0.208-0.328-0.458-0.408-0.75s-0.12-0.614-0.12-0.966V5.57
			h-1.308V3.998h1.308V1.37H41.904z"/>
		<path class="st0" d="M49.128,5.582L46.201,6.77v4.632h-1.86V3.89h1.62l0.156,0.984l3.012-1.092V5.582z"/>
		<path class="st0" d="M56.28,9.218c-0.144,0.808-0.521,1.404-1.134,1.788c-0.612,0.384-1.374,0.576-2.286,0.576
			c-0.552,0-1.046-0.076-1.482-0.228c-0.436-0.152-0.808-0.372-1.115-0.66c-0.309-0.288-0.545-0.636-0.708-1.044
			c-0.164-0.408-0.246-0.864-0.246-1.368V6.914c0-0.504,0.082-0.958,0.246-1.362c0.163-0.404,0.397-0.75,0.702-1.038
			c0.304-0.288,0.674-0.51,1.109-0.666c0.437-0.156,0.93-0.234,1.482-0.234c0.544,0,1.036,0.078,1.476,0.234
			c0.44,0.156,0.814,0.378,1.122,0.666s0.544,0.634,0.708,1.038C56.318,5.956,56.4,6.41,56.4,6.914v0.264
			c0.008,0.08,0.012,0.158,0.012,0.234s0,0.154,0,0.234V8.15h-5.279c0,0.688,0.147,1.17,0.443,1.446
			c0.296,0.276,0.725,0.414,1.284,0.414c0.368,0,0.688-0.056,0.96-0.168c0.271-0.112,0.439-0.32,0.504-0.624H56.28z M52.848,5.21
			c-0.504,0-0.898,0.108-1.183,0.324c-0.284,0.216-0.458,0.588-0.521,1.116h3.359c-0.056-0.528-0.222-0.9-0.497-1.116
			C53.73,5.318,53.344,5.21,52.848,5.21z"/>
		<path class="st0" d="M57.035,9.266c0-0.416,0.057-0.782,0.169-1.098c0.111-0.316,0.289-0.582,0.533-0.798
			c0.244-0.216,0.564-0.378,0.96-0.486c0.396-0.108,0.883-0.162,1.458-0.162h1.836V6.218c0-0.272-0.115-0.514-0.348-0.726
			s-0.563-0.318-0.996-0.318c-0.191,0-0.368,0.008-0.527,0.024c-0.16,0.016-0.303,0.052-0.427,0.108s-0.231,0.136-0.323,0.24
			c-0.093,0.104-0.162,0.244-0.211,0.42h-1.787C57.476,5.23,57.8,4.648,58.344,4.22c0.544-0.428,1.315-0.63,2.315-0.606
			c1.024,0.016,1.807,0.26,2.347,0.732s0.81,1.192,0.81,2.16v4.896h-1.644L62.1,10.658c-0.32,0.376-0.684,0.624-1.092,0.744
			c-0.408,0.12-0.88,0.18-1.416,0.18c-0.368,0-0.708-0.044-1.021-0.132c-0.312-0.088-0.582-0.226-0.81-0.414
			c-0.229-0.188-0.406-0.428-0.534-0.72S57.035,9.674,57.035,9.266z M60,9.974c0.159-0.008,0.354-0.038,0.582-0.09
			c0.228-0.052,0.445-0.138,0.653-0.258s0.386-0.278,0.534-0.474c0.148-0.196,0.222-0.442,0.222-0.738V8.222h-1.739
			c-0.521,0-0.885,0.072-1.093,0.216s-0.312,0.4-0.312,0.768c0,0.168,0.038,0.304,0.114,0.408c0.075,0.104,0.172,0.184,0.288,0.24
			c0.115,0.056,0.239,0.092,0.372,0.108C59.754,9.978,59.88,9.982,60,9.974z"/>
		<path class="st0" d="M66.875,4.682c0.072-0.12,0.164-0.242,0.276-0.366s0.244-0.236,0.396-0.336
			c0.152-0.1,0.322-0.182,0.511-0.246c0.188-0.064,0.397-0.096,0.63-0.096c0.496,0,0.89,0.092,1.182,0.276
			c0.292,0.184,0.518,0.456,0.678,0.816c0.104-0.168,0.23-0.318,0.379-0.45c0.147-0.132,0.312-0.246,0.491-0.342
			c0.181-0.096,0.37-0.17,0.57-0.222c0.2-0.052,0.396-0.078,0.588-0.078c1.504,0,2.256,0.872,2.256,2.616v5.148H73.02V6.614
			c0-0.488-0.064-0.842-0.192-1.062c-0.128-0.22-0.355-0.33-0.684-0.33c-0.384,0-0.69,0.132-0.918,0.396
			c-0.229,0.264-0.351,0.68-0.366,1.248v4.536h-1.836V6.398c0-0.384-0.061-0.676-0.18-0.876c-0.12-0.2-0.324-0.3-0.612-0.3
			c-0.185,0-0.356,0.032-0.517,0.096c-0.159,0.064-0.304,0.164-0.432,0.3c-0.128,0.136-0.228,0.308-0.3,0.516
			c-0.072,0.208-0.108,0.452-0.108,0.732v4.536h-1.848V3.89h1.716L66.875,4.682z"/>
	</g>
	<circle class="st1" cx="76.332" cy="2.37" r="1"/>
</g>
</svg>
